<svg version="1.2" xmlns="http://www.w3.org/2000/svg" viewBox="0 0 448 512" width="448" height="512">
	<title>instagram-svg</title>
	<style>
		.s0 { fill: #ffea00 } 
	</style>
	<path id="Layer" fill-rule="evenodd" class="s0" d="m409.7 333.1c-1.5 30-8.4 56.5-30.2 78.4-21.9 21.9-48.4 28.8-78.4 30.2-30.8 1.7-123.4 1.7-154.2 0-30-1.5-56.4-8.4-78.4-30.2-21.9-21.9-28.8-48.4-30.2-78.4-1.7-30.8-1.7-123.4 0-154.3 1.5-29.9 8.3-56.4 30.2-78.3 22-21.9 48.5-28.7 78.4-30.1 30.8-1.8 123.4-1.8 154.2 0 30 1.5 56.5 8.3 78.4 30.2 21.9 21.8 28.8 48.4 30.2 78.3 1.7 30.9 1.7 123.4 0 154.2zm-32.4-77.1c0-27.2 2.3-85.6-7.5-110.2-6.6-16.4-19.2-29-35.5-35.5-24.6-9.7-83.1-7.5-110.3-7.5-27.2 0-85.6-2.3-110.2 7.5-16.4 6.6-29 19.2-35.5 35.5-9.7 24.5-7.5 83-7.5 110.2 0 27.2-2.3 85.6 7.5 110.2 6.6 16.5 19.2 29.1 35.5 35.6 24.6 9.7 83 7.5 110.2 7.5 27.2 0 85.6 2.3 110.3-7.5 16.4-6.6 29-19.2 35.5-35.6 9.8-24.5 7.5-83 7.5-110.2zm-53.5-77.4c-12.3 0-22.3-10-22.3-22.4 0-12.3 10-22.3 22.3-22.3 12.4 0 22.4 10 22.4 22.3 0 12.4-10 22.4-22.4 22.4zm-99.8 173.3c-53 0-95.8-42.9-95.8-95.9 0-53 42.8-95.8 95.8-95.8 53.1 0 95.9 42.8 95.9 95.8 0 53-42.8 95.9-95.9 95.9zm62.4-95.9c0-34.4-27.9-62.3-62.4-62.3-34.4 0-62.3 27.9-62.3 62.3 0 34.5 27.9 62.4 62.3 62.4 34.5 0 62.4-27.9 62.4-62.4z"/>
</svg>